<svg id="Layer_1" data-name="Layer 1" xmlns="http://www.w3.org/2000/svg" viewBox="0 0 800 800"><defs><style>.cls-1,.cls-2{fill:#60e6fc;}.cls-2{font-size:292.38px;font-family:Optima-Bold, Optima;font-weight:700;}.cls-3{fill:#52ff7f;}</style></defs><title>Artboard 1 copy 4</title><path class="cls-1" d="M461.92,309V283.09q0-15.81-.33-28.1t-1-24.67q2.83.39,6.16.67t7.49.28q4.16,0,7.49-.28t6.16-.67q-.67,12.39-1,24.67t-.33,28.1V309q0,10.86.08,21l.25,6.57q.34,12.29,1,24.67-2.83-.39-6.16-.67t-7.49-.28q-4.16,0-7.49.28t-6.16.67q.67-12.39,1-24.67Z"/><path class="cls-1" d="M550.21,309.3V283.39q0-15.81-.33-28.1t-1-24.67q2.83.39,6.16.67t7.49.28q4.16,0,7.49-.28t6.16-.67q-.67,12.39-1,24.67t-.33,28.1V309.3q0,10.86.08,21l.25,6.57q.34,12.29,1,24.67-2.83-.39-6.16-.67t-7.49-.28q-4.16,0-7.49.28t-6.16.67q.67-12.39,1-24.67Z"/><path class="cls-1" d="M494.08,276c-5-7.52-7.35-10.74-10.88-15.35-3.38-4.42-6.72-8.5-9.16-11.73a66.42,66.42,0,0,0-5.18-6.33,61.41,61.41,0,0,0,8.83-4.49,94.58,94.58,0,0,0,10.19-7.78q9.68,16.35,17.7,29.43L544,316.16l10.38,15q4.75,6.86,8.41,11.71a66.42,66.42,0,0,0,5.18,6.33,61.41,61.41,0,0,0-8.83,4.49,94.58,94.58,0,0,0-10.19,7.78c-6.46-10.9-11.13-20.66-16.45-29.08Z"/><path class="cls-1" d="M438.95,347.66q-4-8.76-8.72-19.82L420,304.13q-5.45-12.67-10.9-25.63T398.43,253q-5.25-12.58-9.61-23.44c-1.32.25-8.18.49-9.37.67a34.52,34.52,0,0,1-3.77.28,24,24,0,0,1-3.76-.28c-1.19-.19-8-.41-9.37-.67q-4.36,10.86-9.61,23.44t-10.7,25.53q-5.45,13-10.9,25.63l-10.2,23.72q-4.75,11.05-8.72,19.82t-6.34,13.72a37.93,37.93,0,0,1,5.15-.38h12.21c1.52,0,13.4.13,15,.38q2.77-9.33,6.14-19.05t7.33-19.43q5.15-.19,10.3-.29t10.3-.1h6.34q5.15,0,10.3.1t10.3.29q4,9.71,7.33,19.43t6.14,19.05c1.59-.25,13.47-.38,15-.38h12.21a37.93,37.93,0,0,1,5.15.38Q442.91,356.43,438.95,347.66Zm-81.89-36Q361.41,300,366,288.88t9.71-22.58q5.15,11.43,9.71,22.58t8.92,22.77Z"/><path class="cls-1" d="M268.86,274.69q4-7,7.73-14.58t7.33-15.34q3.57-7.72,6.94-14.77c1.45.26,2.94.48,4.46.67s5.87.28,7.46.28,5.94-.1,7.46-.28,5.94-.41,7.66-.67q-3.37,5.34-8.42,14t-10.8,18.77q-5.75,10.1-11.59,20.67T276.47,303q0,4.57-.2,9.24t-.2,9.43q0,9.72.3,19.24a200.16,200.16,0,0,0,1.68,20q-4.16-.38-8.42-.38H252.79q-4.26,0-8.42.38.4-8.76,1.39-17.91a170,170,0,0,0,1-18.29q0-4.38-.1-8.86t-.3-8.86q-5-9.52-11.39-21.24T222.48,263q-6-11-11.1-20T204,230c3,.26,3.21.48,6.12.67s3.07.28,6.11.28,6-.1,8.82-.28,3-.41,6-.67q3.37,7.05,7.63,15.62t8.42,16.77q4.16,8.19,7.73,14.86t5.75,9.91h.4A143.13,143.13,0,0,0,268.86,274.69Z"/><text class="cls-2" transform="translate(31.25 360.26)">R </text><path class="cls-3" d="M344.21,440.27q0-15.81-.38-28.1t-1.14-24.67q3.24.39,7,.67t8.57.28q8.19,0,17.15-.48t17.15-.48a66.11,66.11,0,0,1,15.62,1.72,36.73,36.73,0,0,1,12.19,5.24,23.45,23.45,0,0,1,7.91,9.14A30.22,30.22,0,0,1,431.09,417a26.46,26.46,0,0,1-3.24,13.43,32.51,32.51,0,0,1-7.91,9.34,38.27,38.27,0,0,1-10.1,5.81,52.55,52.55,0,0,1-9.81,2.86v.38a42.1,42.1,0,0,1,10.29,2,38.94,38.94,0,0,1,11.24,5.62,33.68,33.68,0,0,1,9,9.81,27.17,27.17,0,0,1,3.71,14.58q0,10.29-3.71,17.53a33.35,33.35,0,0,1-9.91,11.81,37.54,37.54,0,0,1-14.19,6.38,74.91,74.91,0,0,1-16.58,1.81q-7.62,0-14.19-.19T361.93,518H351.36a77.7,77.7,0,0,0-8.67.38q.76-11.81,1.14-24.1t.38-28.1Zm58.68-19.62a35,35,0,0,0-1-8.67,17.65,17.65,0,0,0-3.53-7.05,18.35,18.35,0,0,0-6.29-4.76,22.17,22.17,0,0,0-9.53-1.81q-4.19,0-5.81.1a26.44,26.44,0,0,0-3.52.48q-.39,7.05-.57,14.29t-.19,12.2q0,5.14.09,9.81t.1,9.62h8.57a21.56,21.56,0,0,0,7.91-1.52,20.73,20.73,0,0,0,7-4.48,22.2,22.2,0,0,0,5-7.53A27.61,27.61,0,0,0,402.9,420.65Zm1.33,61.54q0-13.33-6-19.91t-17.43-6.57q-2.67,0-4.57.1t-3.62.1q0,4-.1,8.29t-.09,10.19q0,4.57.09,9.34t.1,9.34q0,4.57.09,8.38t.1,6.29q2.67.19,5,.28t5.53.1a19.29,19.29,0,0,0,8-1.72,18.94,18.94,0,0,0,6.67-5,25.56,25.56,0,0,0,4.57-8.1A32.55,32.55,0,0,0,404.23,482.18Z"/><path class="cls-3" d="M460.24,412.17q-.38-12.29-1.14-24.67,3.24.39,7,.67t8.57.28q4.76,0,8.57-.28t7-.67q-.76,12.39-1.14,24.67t-.38,28.1v25.91q0,10.86.09,21t.29,17.53q10.86,0,21.72-.57t21.91-1.9c-.26,1.4-.45,2.67-.57,3.81a59.34,59.34,0,0,0,0,9.53,13.71,13.71,0,0,0,.57,2.86q-5.14-.19-12.67-.28t-20.67-.1h-30.2q-4.29,0-6.48.1t-3.72.28q.76-11.81,1.14-24.1t.38-28.1V440.27Q460.62,424.46,460.24,412.17Z"/><path class="cls-3" d="M553.79,412.17q-.39-12.29-1.14-24.67,8.57.19,17,.57t17,.38q14.1,0,25.05-.28t14.77-.67a34,34,0,0,0-.76,8,45.63,45.63,0,0,0,.19,4.76q.19,1.72.57,3.81-5.53-.38-12.1-.76t-12.77-.76q-6.19-.38-11.15-.57t-7-.19q-.77,10.48-.86,20.77t-.1,20.77q12.38-.18,22.39-.57t20.86-1c-.38,2.16-.64,3.81-.76,5a32.41,32.41,0,0,0-.19,3.62,18,18,0,0,0,.29,3.14q.29,1.62.67,4.67-21.72-1.72-43.25-1.72,0,6.1-.09,12.19t-.1,12.2q0,12.39.57,23.82,10.86,0,21.72-.57t21.91-1.9c-.26,1.4-.45,2.67-.57,3.81a59.76,59.76,0,0,0,0,9.53,13.89,13.89,0,0,0,.57,2.86q-5.14-.19-12.67-.28T593,518h-30.2q-4.29,0-6.48.1t-3.72.28q.76-11.81,1.14-24.1t.38-28.1V440.27Q554.17,424.46,553.79,412.17Z"/><path class="cls-3" d="M679.34,458.37v7.81q0,15.82.38,28.1t1.14,24.1a60.5,60.5,0,0,0-7-.38H656.67a60.43,60.43,0,0,0-7,.38q.76-11.81,1.14-24.1t.38-28.1V440.27q0-15.81-.38-28.1t-1.14-24.67q3.24.39,7,.67t8.57.28q5.14,0,11.72-.48t16.29-.48q7.24,0,12.38.38A71.76,71.76,0,0,1,714.5,389a31.42,31.42,0,0,1,6.48,2,33,33,0,0,1,5.24,3,29.52,29.52,0,0,1,12.38,25.15q0,13.91-7.62,22.67t-21.91,12.38q9.14,16.2,19.62,32.29t21,31.91q-4.39-.38-8.57-.38H723.83q-4.29,0-8.67.38l-34.1-60Zm30.1-35.06q0-8.38-1.71-13.34a15.11,15.11,0,0,0-5.24-7.53,19.85,19.85,0,0,0-9.15-3.33,102,102,0,0,0-13.43-.76q-.57,25.91-.57,51.82,1.14.19,2.19.28c.7.07,1.36.1,2,.1q12.58,0,19.24-6.76T709.45,423.31Z"/><path class="cls-3" d="M324.18,505.14q-4-8.76-8.72-19.82l-10.2-23.72q-5.45-12.67-10.9-25.63t-10.7-25.53q-5.25-12.58-9.61-23.44c-1.32.25-8.18.49-9.37.67a34.52,34.52,0,0,1-3.77.28,24,24,0,0,1-3.76-.28c-1.19-.19-8-.41-9.37-.67q-4.36,10.86-9.61,23.44T227.47,436q-5.45,13-10.9,25.63l-10.2,23.72q-4.75,11.05-8.72,19.82t-6.34,13.72a37.93,37.93,0,0,1,5.15-.38h12.21c1.52,0,13.4.13,15,.38q2.77-9.33,6.14-19.05t7.33-19.43q5.15-.19,10.3-.29t10.3-.1h6.34q5.15,0,10.3.1t10.3.29q4,9.71,7.33,19.43t6.14,19.05c1.59-.25,13.47-.38,15-.38h12.21a37.93,37.93,0,0,1,5.15.38Q328.15,513.91,324.18,505.14Zm-81.89-36q4.36-11.62,8.92-22.77t9.71-22.58q5.15,11.43,9.71,22.58t8.92,22.77Z"/><path class="cls-3" d="M109.78,432.5a68.46,68.46,0,0,0-.74-10q-4.47,0-11,.29t-14,.72q-7.45.43-15.19,1.15t-14.29,1.57q.59-3.15,1-6.3c.3-2.1.45-18,.45-20.09a44.94,44.94,0,0,0-.45-6.3q-.45-3.15-1-6.3,10.12.29,18.31.57t16.68.43q8.49.15,18.46.29t24,.14q14,0,24-.14t18.31-.29q8.33-.14,16.23-.43t17.12-.57q-.6,3.15-1,6.3a45,45,0,0,0-.45,6.3c0,2.1.15,18,.45,20.09s.64,4.2,1,6.3q-6-.86-13.4-1.57t-14.74-1.15q-7.3-.43-13.85-.72t-11-.29a28.53,28.53,0,0,0-.45,4q-.15,2.58-.15,6v15.17l-.89,110.87q0,23.77.6,42.23T155.49,637a97.5,97.5,0,0,0-11-.57h-26.8a97.38,97.38,0,0,0-11,.57q1.19-17.75,1.79-36.22t.59-42.23l.89-110.87Q109.93,439.38,109.78,432.5Z"/><text class="cls-2" transform="translate(31.25 360.26)">R </text><path class="cls-3" d="M109.78,432.5a68.46,68.46,0,0,0-.74-10q-4.47,0-11,.29t-14,.72q-7.45.43-15.19,1.15t-14.29,1.57q.59-3.15,1-6.3c.3-2.1.45-18,.45-20.09a44.94,44.94,0,0,0-.45-6.3q-.45-3.15-1-6.3,10.12.29,18.31.57t16.68.43q8.49.15,18.46.29t24,.14q14,0,24-.14t18.31-.29q8.33-.14,16.23-.43t17.12-.57q-.6,3.15-1,6.3a45,45,0,0,0-.45,6.3c0,2.1.15,18,.45,20.09s.64,4.2,1,6.3q-6-.86-13.4-1.57t-14.74-1.15q-7.3-.43-13.85-.72t-11-.29a28.53,28.53,0,0,0-.45,4q-.15,2.58-.15,6v15.17l-.89,110.87q0,23.77.6,42.23T155.49,637a97.5,97.5,0,0,0-11-.57h-26.8a97.38,97.38,0,0,0-11,.57q1.19-17.75,1.79-36.22t.59-42.23l.89-110.87Q109.93,439.38,109.78,432.5Z"/></svg>