<?xml version="1.0" standalone="no"?>
<!DOCTYPE svg PUBLIC "-//W3C//DTD SVG 20010904//EN"
 "http://www.w3.org/TR/2001/REC-SVG-20010904/DTD/svg10.dtd">
<svg version="1.0" xmlns="http://www.w3.org/2000/svg"
 width="1601.000000pt" height="1601.000000pt" viewBox="0 0 1601.000000 1601.000000"
 preserveAspectRatio="xMidYMid meet">
<metadata>
Created by potrace 1.11, written by Peter Selinger 2001-2013
</metadata>
<g transform="translate(0.000000,1601.000000) scale(0.100000,-0.100000)"
fill="#000000" stroke="none">
<path d="M10 9720 l0 -6290 8000 0 8000 0 0 6290 0 6290 -8000 0 -8000 0 0
-6290z m4825 4470 c366 -34 761 -46 1128 -32 177 7 414 19 527 27 473 34 1241
45 1730 25 870 -35 1322 -142 1731 -409 386 -251 696 -649 838 -1076 87 -259
116 -492 108 -854 -9 -409 -67 -695 -203 -1006 -288 -655 -912 -1139 -1779
-1380 -55 -16 -104 -31 -108 -35 -8 -7 159 -304 411 -730 481 -812 873 -1426
2161 -3379 172 -260 311 -474 309 -476 -2 -1 -41 2 -88 7 -47 5 -485 11 -975
15 -813 5 -1008 2 -1374 -21 -23 -1 -127 178 -1241 2139 l-1216 2140 -62 3
-62 3 0 -728 c0 -1209 29 -2246 89 -3258 10 -165 18 -301 17 -302 0 -1 -39 4
-86 10 -119 16 -1941 16 -2060 0 -47 -6 -85 -11 -86 -10 -1 1 7 137 17 302 74
1251 89 1989 89 4360 0 2032 -9 2662 -50 3610 -16 366 -49 996 -55 1044 l-5
43 43 -6 c23 -3 137 -15 252 -26z"/>
<path d="M6706 13258 c-13 -375 -27 -1386 -33 -2434 l-6 -1081 24 -6 c119 -29
395 -32 614 -6 679 80 1155 427 1368 999 108 289 155 637 144 1055 -10 353
-44 588 -117 806 -170 511 -503 743 -1170 813 -211 23 -451 36 -646 36 l-172
0 -6 -182z"/>
<path d="M10 810 l0 -800 8000 0 8000 0 0 800 0 800 -8000 0 -8000 0 0 -800z"/>
</g>
</svg>
